# xmcd CD database file
#
# Track frame offsets:
#	150
#	23389
#	42067
#	62505
#	78791
#	89413
#	95284
#	103275
#	109728
#	114577
#	125489
#	138071
#	150810
#	169171
#	176447
#	210518
#
# Disc length: 2991 seconds
#
# Revision: 0
# Processed by: cddbd v1.5.1PL0 Copyright (c) Steve Scherf et al.
# Submitted via: CDex 1.51
#
DISCID=b70bad10
DTITLE=ルルティア - 楳図かずお恐怖劇場　ルルティア・トラックス
DYEAR=2005
DGENRE=New Age
TTITLE0=蝶の森(O.Pテーマ-cinema tarack-)
TTITLE1=ハレルヤ
TTITLE2=トロイメライ
TTITLE3=蝶の森
TTITLE4=知恵の実
TTITLE5=パヴァーヌ
TTITLE6=エレメンツ
TTITLE7=満ちる森
TTITLE8=僕の宇宙 君の海
TTITLE9=僕らの箱庭
TTITLE10=neo
TTITLE11=コバルトの星
TTITLE12=エレメンツ
TTITLE13=サンクチュアリ
TTITLE14=コバルトの星(E.Dテーマ-cinema track-)
TTITLE15=楳図かずおの恐怖劇場 予告編-CD EXTRA-
EXTD=YEAR: 2005
EXTT0=
EXTT1=
EXTT2=
EXTT3=
EXTT4=
EXTT5=
EXTT6=
EXTT7=
EXTT8=
EXTT9=
EXTT10=
EXTT11=
EXTT12=
EXTT13=
EXTT14=
EXTT15=
PLAYORDER=
